<svg width="280" height="27" viewBox="0 0 280 27" fill="none" xmlns="http://www.w3.org/2000/svg">
<path d="M0.679688 26.1V0.899974H15.5997C17.6797 0.899974 19.4797 1.23597 20.9997 1.90798C22.5197 2.57997 23.693 3.52798 24.5197 4.75198C25.373 5.95197 25.7997 7.35597 25.7997 8.96398C25.7997 10.548 25.3464 11.988 24.4397 13.284C23.5597 14.5559 22.3464 15.552 20.7997 16.272C19.253 16.992 17.5197 17.352 15.5997 17.352H7.15969V26.1H0.679688ZM19.3997 26.1L10.7597 14.724L17.8397 13.824L27.2797 26.1H19.3997ZM7.15969 12.672H14.8397C15.6397 12.672 16.3464 12.528 16.9597 12.24C17.573 11.952 18.053 11.556 18.3997 11.052C18.773 10.548 18.9597 9.96001 18.9597 9.28798C18.9597 8.61597 18.773 8.03997 18.3997 7.55998C18.0264 7.05598 17.5064 6.67197 16.8397 6.40798C16.1997 6.14398 15.453 6.01198 14.5997 6.01198H7.15969V12.672ZM42.0516 26.1V0.899974H65.1316V6.11998H48.6516V20.88H65.5316V26.1H42.0516ZM45.4916 15.768V10.8H63.3316V15.768H45.4916ZM92.3625 26.46C90.2292 26.46 88.2958 26.28 86.5625 25.92C84.8292 25.5359 83.2692 25.008 81.8825 24.336C80.4958 23.64 79.2292 22.8359 78.0825 21.924L81.5625 17.316C83.4292 18.78 85.3092 19.8119 87.2025 20.412C89.1225 21.012 90.9892 21.312 92.8025 21.312C93.6558 21.312 94.4825 21.24 95.2825 21.096C96.0825 20.9279 96.7492 20.664 97.2825 20.304C97.8425 19.9199 98.1225 19.4159 98.1225 18.792C98.1225 18.384 97.9892 18.0479 97.7225 17.784C97.4558 17.496 97.0825 17.268 96.6025 17.1C96.1492 16.908 95.6025 16.7519 94.9625 16.632C94.3492 16.488 93.6825 16.38 92.9625 16.308C92.2425 16.2119 91.5092 16.116 90.7625 16.02C89.0292 15.828 87.4692 15.5279 86.0825 15.12C84.6958 14.712 83.5225 14.1959 82.5625 13.572C81.6025 12.924 80.8692 12.168 80.3625 11.304C79.8558 10.4159 79.6025 9.40795 79.6025 8.27998C79.6025 7.05598 79.9225 5.95197 80.5625 4.96798C81.2292 3.95998 82.1492 3.11998 83.3225 2.44798C84.4958 1.75198 85.8425 1.22398 87.3625 0.863975C88.8825 0.503975 90.5092 0.323975 92.2425 0.323975C94.1892 0.323975 95.9092 0.491975 97.4025 0.827975C98.9225 1.16397 100.256 1.61998 101.403 2.19598C102.549 2.77198 103.496 3.44397 104.243 4.21198L100.643 8.24398C99.8958 7.64397 99.0558 7.15198 98.1225 6.76798C97.2158 6.35998 96.2425 6.04798 95.2025 5.83198C94.1892 5.61598 93.1758 5.50798 92.1625 5.50798C91.0958 5.50798 90.1492 5.60398 89.3225 5.79598C88.5225 5.96398 87.8825 6.21598 87.4025 6.55198C86.9492 6.88797 86.7225 7.31997 86.7225 7.84798C86.7225 8.30398 86.9225 8.68797 87.3225 8.99998C87.7225 9.31201 88.2425 9.57598 88.8825 9.79198C89.5492 9.98395 90.2692 10.14 91.0425 10.26C91.8158 10.3799 92.5892 10.476 93.3625 10.548C94.9092 10.7399 96.3892 10.9919 97.8025 11.304C99.2425 11.592 100.509 12.012 101.603 12.564C102.723 13.092 103.589 13.7999 104.203 14.688C104.843 15.576 105.163 16.7159 105.163 18.108C105.163 19.8839 104.616 21.3959 103.523 22.644C102.429 23.868 100.909 24.8159 98.9625 25.488C97.0425 26.136 94.8425 26.46 92.3625 26.46ZM133.042 26.316C130.296 26.316 127.882 25.8239 125.802 24.84C123.749 23.856 122.136 22.5119 120.962 20.808C119.816 19.08 119.242 17.1119 119.242 14.904V0.899974H126.122V14.688C126.122 15.8879 126.416 16.956 127.002 17.892C127.616 18.828 128.442 19.5599 129.482 20.088C130.549 20.616 131.736 20.88 133.042 20.88C134.402 20.88 135.616 20.616 136.682 20.088C137.749 19.5599 138.589 18.828 139.202 17.892C139.842 16.956 140.162 15.8879 140.162 14.688V0.899974H146.802V14.904C146.802 17.1119 146.216 19.08 145.042 20.808C143.896 22.5119 142.282 23.856 140.202 24.84C138.149 25.8239 135.762 26.316 133.042 26.316ZM163.121 26.1V0.899974H169.201L181.041 15.372H177.001L188.881 0.899974H194.881V26.1H188.281V18.036C188.281 15.972 188.334 14.076 188.441 12.348C188.547 10.5959 188.761 8.83197 189.081 7.05598L189.761 8.99998L180.281 19.98H177.641L168.161 8.99998L168.921 7.05598C169.214 8.78398 169.414 10.5239 169.521 12.276C169.654 14.004 169.721 15.9239 169.721 18.036V26.1H163.121ZM207.446 26.1L220.326 0.899974H226.526L239.326 26.1H232.326L225.126 11.952C224.886 11.4239 224.646 10.908 224.406 10.404C224.166 9.87595 223.939 9.37195 223.726 8.89198C223.512 8.38798 223.312 7.88398 223.126 7.37998C222.939 6.87598 222.766 6.38397 222.606 5.90398L224.046 5.86798C223.859 6.39598 223.672 6.91198 223.486 7.41598C223.299 7.91998 223.086 8.42398 222.846 8.92798C222.632 9.43198 222.406 9.93598 222.166 10.44C221.926 10.9199 221.686 11.436 221.446 11.988L214.246 26.1H207.446ZM213.446 21.492L215.646 16.884H231.006L232.366 21.492H213.446ZM271.24 26.1L261 14.76L248.12 0.899974H256.64L266.52 11.916L279.8 26.1H271.24ZM247.92 26.1L260.28 12.384L265.6 15.228L256.12 26.1H247.92ZM267.36 14.4L262.12 11.664L271.12 0.899974H279.36L267.36 14.4Z" fill="white"/>
</svg>
